<svg width="210" height="23" viewBox="0 0 210 23" fill="none" xmlns="http://www.w3.org/2000/svg">
<path d="M12.116 23H0.936V22.74C2.704 22.74 2.99 21.778 2.99 19.776V3.63C2.99 2.122 2.808 1.134 1.274 1.134V0.874H11.752C15.392 0.874 18.2 1.914 18.2 5.892C18.2 9.792 14.118 10.988 11.83 10.988C15.652 12.314 19.656 12.99 19.994 17.28C20.02 17.488 20.02 17.696 20.02 17.904C20.02 19.646 19.37 20.998 17.94 21.83C16.484 22.688 14.43 23 12.116 23ZM7.384 8.596C6.942 8.05 6.578 7.426 6.318 6.672V22.714H11.128C14.066 22.714 16.666 21.726 16.666 17.28C16.666 11.95 10.92 12.834 7.384 8.596ZM10.218 1.16H6.318V5.372C6.734 8.544 8.866 9.922 11.466 10.832C13.962 10.702 14.872 8.778 14.872 5.892C14.872 2.226 12.714 1.16 10.218 1.16ZM26.1993 1.316C25.9133 1.186 25.5753 1.134 25.1333 1.134V0.874C26.8233 0.951999 27.8113 1.004 28.8253 1.004C29.8393 1.004 30.8533 0.951999 32.5953 0.874V1.134C30.8793 1.134 30.5153 1.992 30.5153 3.838V22.714H33.9473C38.8613 22.714 40.8633 21.622 43.4373 18.06C43.5153 18.06 43.5933 18.138 43.6453 18.164L42.7613 22.922V23H25.4713V22.74C27.0053 22.74 27.1873 21.752 27.1873 20.244V4.098C27.1873 2.59 27.0313 1.68 26.1993 1.316ZM48.0864 11.872C48.0864 5.528 52.7144 0.874 58.9544 0.874C65.2984 0.874 69.9004 5.632 69.9004 11.872C69.9004 18.034 65.1164 23 59.0064 23C52.6884 23 48.0864 18.138 48.0864 11.872ZM51.4144 11.898C51.4144 17.384 53.5984 22.714 59.0064 22.714C64.3364 22.714 66.5724 17.254 66.5724 11.924C66.5724 6.438 64.4664 1.16 58.9804 1.16C53.4684 1.16 51.4144 6.308 51.4144 11.898ZM75.0258 20.79L76.1958 16.266L76.4038 16.292C76.9498 20.036 79.3418 22.74 83.1638 22.74C86.5698 22.74 89.3778 21.31 89.3778 18.086C89.3778 12.002 75.2078 14.68 75.2078 6.698C75.2078 2.434 79.6798 0.874 83.9438 0.874C86.7778 0.874 89.0398 1.446 91.5098 2.668L90.2098 7.166L89.9498 7.14C89.8198 3.708 87.2458 1.16 83.9178 1.16C80.8758 1.16 78.1458 2.772 78.1458 5.71C78.1458 11.43 92.4198 8.492 92.4198 16.656C92.4198 21.466 88.0778 23 83.1898 23C80.1998 23 77.5478 22.35 75.0258 20.79ZM97.5473 20.79L98.7173 16.266L98.9253 16.292C99.4713 20.036 101.863 22.74 105.685 22.74C109.091 22.74 111.899 21.31 111.899 18.086C111.899 12.002 97.7293 14.68 97.7293 6.698C97.7293 2.434 102.201 0.874 106.465 0.874C109.299 0.874 111.561 1.446 114.031 2.668L112.731 7.166L112.471 7.14C112.341 3.708 109.767 1.16 106.439 1.16C103.397 1.16 100.667 2.772 100.667 5.71C100.667 11.43 114.941 8.492 114.941 16.656C114.941 21.466 110.599 23 105.711 23C102.721 23 100.069 22.35 97.5473 20.79ZM120.069 11.872C120.069 5.528 124.697 0.874 130.937 0.874C137.281 0.874 141.883 5.632 141.883 11.872C141.883 18.034 137.099 23 130.989 23C124.671 23 120.069 18.138 120.069 11.872ZM123.397 11.898C123.397 17.384 125.581 22.714 130.989 22.714C136.319 22.714 138.555 17.254 138.555 11.924C138.555 6.438 136.449 1.16 130.963 1.16C125.451 1.16 123.397 6.308 123.397 11.898ZM147.008 22.74C148.854 22.74 149.062 21.934 149.062 20.036V3.162L148.1 0.874H151.714L159.878 20.218C159.826 19.932 159.826 19.646 159.826 19.334C159.826 19.126 159.826 18.892 159.852 18.658C160.086 16.396 161.412 14.498 162.79 12.496C164.454 9.974 166.3 7.374 166.638 3.604C166.638 2.148 166.456 1.134 164.922 1.134V0.874C166.404 0.977998 167.288 1.03 168.198 1.03C169.16 1.03 170.096 0.977998 171.682 0.874V1.134C170.148 1.134 169.966 2.07 169.966 3.552V20.036C169.966 21.882 170.33 22.74 172.046 22.74V23C170.824 22.922 169.602 22.896 168.484 22.896C167.366 22.896 166.404 22.922 165.702 22.948C165.286 22.974 164.922 22.974 164.584 23V22.74C166.43 22.74 166.638 21.674 166.638 19.776V5.372C165.806 8.986 163.726 11.664 162.062 14.082C161.49 14.888 161.022 15.72 160.684 16.578C160.346 17.436 160.164 18.112 160.138 18.606C160.112 19.1 160.086 19.386 160.086 19.464C160.086 20.322 160.32 21.232 160.736 22.22L161.048 23H157.434L149.348 3.838V20.036C149.348 22.22 149.53 22.74 151.402 22.74V23C149.582 22.922 149.088 22.922 147.008 23V22.74ZM181.072 22.896C179.954 22.896 178.992 22.922 178.29 22.948C177.874 22.974 177.51 22.974 177.172 23V22.74C179.018 22.74 179.226 21.934 179.226 20.036V3.63C179.226 2.122 179.044 1.134 177.51 1.134V0.874C178.992 0.977998 179.876 1.03 180.786 1.03C181.748 1.03 182.684 0.977998 184.27 0.874V1.134C182.736 1.134 182.554 2.07 182.554 3.552V20.036C182.554 21.882 182.918 22.74 184.634 22.74V23C183.412 22.922 182.19 22.896 181.072 22.896ZM189.09 23V22.792C190.104 22.246 190.728 21.362 191.274 20.114C192.626 16.76 193.848 13.692 194.914 10.962C196.786 6.334 198.658 1.524 198.866 0.925999C198.892 0.899999 198.892 0.899999 198.892 0.874H199.1L207.394 20.14C208.2 21.986 208.824 22.558 209.526 22.792V23C208.174 22.896 207.186 22.87 206.172 22.87C205.158 22.87 204.118 22.896 202.662 23C200.92 23 199.88 21.986 199.074 20.686C198.658 20.036 198.294 19.334 197.982 18.58C197.046 16.318 195.98 14.498 194.03 14.498C193.952 14.498 193.848 14.498 193.77 14.498C192.86 16.864 192.002 18.944 191.664 19.854C191.508 20.244 191.456 20.608 191.456 20.946C191.456 21.18 191.508 21.492 191.612 21.882C191.742 22.272 192.158 22.558 192.912 22.792V23C192.158 22.922 191.638 22.896 191.144 22.896C190.494 22.896 189.922 22.922 189.09 23ZM194.966 11.534C194.602 12.444 194.238 13.328 193.9 14.212C193.926 14.212 193.978 14.212 194.004 14.212C194.628 14.212 195.2 14.368 195.72 14.68C196.864 15.434 197.54 16.89 198.19 18.346C199.1 20.348 200.114 22.714 202.662 22.714C203.806 22.714 203.962 21.778 203.962 21.336C203.962 21.05 203.91 20.556 203.624 19.828C203.598 19.776 203.546 19.672 203.546 19.646C198.736 8.492 198.658 8.284 197.41 5.372C196.994 6.36 196.032 8.882 194.966 11.534Z" fill="#2C2C2C"/>
</svg>
