<svg xmlns="http://www.w3.org/2000/svg" version="1.1" xmlns:xlink="http://www.w3.org/1999/xlink" width="210" height="23"><svg width="210" height="23" viewBox="0 0 210 23" fill="none" xmlns="http://www.w3.org/2000/svg">
<path d="M11.8662 23H0.686244V22.74C2.45424 22.74 2.74024 21.778 2.74024 19.776V3.63C2.74024 2.122 2.55824 1.134 1.02424 1.134V0.874H11.5022C15.1422 0.874 17.9502 1.914 17.9502 5.892C17.9502 9.792 13.8682 10.988 11.5802 10.988C15.4022 12.314 19.4062 12.99 19.7442 17.28C19.7702 17.488 19.7702 17.696 19.7702 17.904C19.7702 19.646 19.1202 20.998 17.6902 21.83C16.2342 22.688 14.1802 23 11.8662 23ZM7.13424 8.596C6.69224 8.05 6.32824 7.426 6.06824 6.672V22.714H10.8782C13.8162 22.714 16.4162 21.726 16.4162 17.28C16.4162 11.95 10.6702 12.834 7.13424 8.596ZM9.96824 1.16H6.06824V5.372C6.48424 8.544 8.61624 9.922 11.2162 10.832C13.7122 10.702 14.6222 8.778 14.6222 5.892C14.6222 2.226 12.4642 1.16 9.96824 1.16ZM25.9495 1.316C25.6635 1.186 25.3255 1.134 24.8835 1.134V0.874C26.5735 0.951999 27.5615 1.004 28.5755 1.004C29.5895 1.004 30.6035 0.951999 32.3455 0.874V1.134C30.6295 1.134 30.2655 1.992 30.2655 3.838V22.714H33.6975C38.6115 22.714 40.6135 21.622 43.1875 18.06C43.2655 18.06 43.3435 18.138 43.3955 18.164L42.5115 22.922V23H25.2215V22.74C26.7555 22.74 26.9375 21.752 26.9375 20.244V4.098C26.9375 2.59 26.7815 1.68 25.9495 1.316ZM47.8366 11.872C47.8366 5.528 52.4646 0.874 58.7046 0.874C65.0486 0.874 69.6506 5.632 69.6506 11.872C69.6506 18.034 64.8666 23 58.7566 23C52.4386 23 47.8366 18.138 47.8366 11.872ZM51.1646 11.898C51.1646 17.384 53.3486 22.714 58.7566 22.714C64.0866 22.714 66.3226 17.254 66.3226 11.924C66.3226 6.438 64.2166 1.16 58.7306 1.16C53.2186 1.16 51.1646 6.308 51.1646 11.898ZM74.7761 20.79L75.9461 16.266L76.1541 16.292C76.7001 20.036 79.0921 22.74 82.9141 22.74C86.3201 22.74 89.1281 21.31 89.1281 18.086C89.1281 12.002 74.9581 14.68 74.9581 6.698C74.9581 2.434 79.4301 0.874 83.6941 0.874C86.5281 0.874 88.7901 1.446 91.2601 2.668L89.9601 7.166L89.7001 7.14C89.5701 3.708 86.9961 1.16 83.6681 1.16C80.6261 1.16 77.8961 2.772 77.8961 5.71C77.8961 11.43 92.1701 8.492 92.1701 16.656C92.1701 21.466 87.8281 23 82.9401 23C79.9501 23 77.2981 22.35 74.7761 20.79ZM97.2976 20.79L98.4676 16.266L98.6756 16.292C99.2216 20.036 101.614 22.74 105.436 22.74C108.842 22.74 111.65 21.31 111.65 18.086C111.65 12.002 97.4796 14.68 97.4796 6.698C97.4796 2.434 101.952 0.874 106.216 0.874C109.05 0.874 111.312 1.446 113.782 2.668L112.482 7.166L112.222 7.14C112.092 3.708 109.518 1.16 106.19 1.16C103.148 1.16 100.418 2.772 100.418 5.71C100.418 11.43 114.692 8.492 114.692 16.656C114.692 21.466 110.35 23 105.462 23C102.472 23 99.8196 22.35 97.2976 20.79ZM119.819 11.872C119.819 5.528 124.447 0.874 130.687 0.874C137.031 0.874 141.633 5.632 141.633 11.872C141.633 18.034 136.849 23 130.739 23C124.421 23 119.819 18.138 119.819 11.872ZM123.147 11.898C123.147 17.384 125.331 22.714 130.739 22.714C136.069 22.714 138.305 17.254 138.305 11.924C138.305 6.438 136.199 1.16 130.713 1.16C125.201 1.16 123.147 6.308 123.147 11.898ZM146.759 22.74C148.605 22.74 148.813 21.934 148.813 20.036V3.162L147.851 0.874H151.465L159.629 20.218C159.577 19.932 159.577 19.646 159.577 19.334C159.577 19.126 159.577 18.892 159.603 18.658C159.837 16.396 161.163 14.498 162.541 12.496C164.205 9.974 166.051 7.374 166.389 3.604C166.389 2.148 166.207 1.134 164.673 1.134V0.874C166.155 0.977998 167.039 1.03 167.949 1.03C168.911 1.03 169.847 0.977998 171.433 0.874V1.134C169.899 1.134 169.717 2.07 169.717 3.552V20.036C169.717 21.882 170.081 22.74 171.797 22.74V23C170.575 22.922 169.353 22.896 168.235 22.896C167.117 22.896 166.155 22.922 165.453 22.948C165.037 22.974 164.673 22.974 164.335 23V22.74C166.181 22.74 166.389 21.674 166.389 19.776V5.372C165.557 8.986 163.477 11.664 161.813 14.082C161.241 14.888 160.773 15.72 160.435 16.578C160.097 17.436 159.915 18.112 159.889 18.606C159.863 19.1 159.837 19.386 159.837 19.464C159.837 20.322 160.071 21.232 160.487 22.22L160.799 23H157.185L149.099 3.838V20.036C149.099 22.22 149.281 22.74 151.153 22.74V23C149.333 22.922 148.839 22.922 146.759 23V22.74ZM180.823 22.896C179.705 22.896 178.743 22.922 178.041 22.948C177.625 22.974 177.261 22.974 176.923 23V22.74C178.769 22.74 178.977 21.934 178.977 20.036V3.63C178.977 2.122 178.795 1.134 177.261 1.134V0.874C178.743 0.977998 179.627 1.03 180.537 1.03C181.499 1.03 182.435 0.977998 184.021 0.874V1.134C182.487 1.134 182.305 2.07 182.305 3.552V20.036C182.305 21.882 182.669 22.74 184.385 22.74V23C183.163 22.922 181.941 22.896 180.823 22.896ZM188.84 23V22.792C189.854 22.246 190.478 21.362 191.024 20.114C192.376 16.76 193.598 13.692 194.664 10.962C196.536 6.334 198.408 1.524 198.616 0.925999C198.642 0.899999 198.642 0.899999 198.642 0.874H198.85L207.144 20.14C207.95 21.986 208.574 22.558 209.276 22.792V23C207.924 22.896 206.936 22.87 205.922 22.87C204.908 22.87 203.868 22.896 202.412 23C200.67 23 199.63 21.986 198.824 20.686C198.408 20.036 198.044 19.334 197.732 18.58C196.796 16.318 195.73 14.498 193.78 14.498C193.702 14.498 193.598 14.498 193.52 14.498C192.61 16.864 191.752 18.944 191.414 19.854C191.258 20.244 191.206 20.608 191.206 20.946C191.206 21.18 191.258 21.492 191.362 21.882C191.492 22.272 191.908 22.558 192.662 22.792V23C191.908 22.922 191.388 22.896 190.894 22.896C190.244 22.896 189.672 22.922 188.84 23ZM194.716 11.534C194.352 12.444 193.988 13.328 193.65 14.212C193.676 14.212 193.728 14.212 193.754 14.212C194.378 14.212 194.95 14.368 195.47 14.68C196.614 15.434 197.29 16.89 197.94 18.346C198.85 20.348 199.864 22.714 202.412 22.714C203.556 22.714 203.712 21.778 203.712 21.336C203.712 21.05 203.66 20.556 203.374 19.828C203.348 19.776 203.296 19.672 203.296 19.646C198.486 8.492 198.408 8.284 197.16 5.372C196.744 6.36 195.782 8.882 194.716 11.534Z" fill="#2C2C2C"></path>
</svg><style>@media (prefers-color-scheme: light) { :root { filter: none; } }
@media (prefers-color-scheme: dark) { :root { filter: contrast(0.3846153846153846) brightness(4.5); } }
</style></svg>